<svg width="500" height="232" viewBox="0 0 500 232" fill="none" xmlns="http://www.w3.org/2000/svg">
<mask id="mask0_102_2672" style="mask-type:luminance" maskUnits="userSpaceOnUse" x="0" y="0" width="500" height="232">
<path d="M440.773 148.834C442.709 150.337 444.488 152.011 446.118 153.847C449.192 154.211 452.106 154.736 454.869 155.408C450.85 152.518 446.088 150.385 440.773 148.834ZM430.797 146.791C432.564 148.714 434.154 150.846 435.604 153.142C439.018 153.187 442.268 153.398 445.381 153.746C443.639 151.831 441.73 150.098 439.649 148.554C436.852 147.804 433.895 147.221 430.797 146.791ZM424.766 141.306C426.771 142.803 428.618 144.486 430.346 146.311C433.307 146.695 436.136 147.22 438.825 147.893C434.741 145.028 430.014 142.871 424.766 141.306ZM420.484 145.944C422.039 148.256 423.453 150.747 424.698 153.45C428.266 153.216 431.731 153.088 435.042 153.116C433.544 150.788 431.897 148.633 430.07 146.691C427.013 146.293 423.816 146.045 420.484 145.944ZM415.067 139.248C416.918 141.161 418.622 143.263 420.187 145.541C423.461 145.622 426.607 145.845 429.618 146.21C427.775 144.309 425.797 142.567 423.647 141.029C420.92 140.283 418.056 139.694 415.067 139.248ZM408.781 133.781C410.848 135.28 412.781 136.954 414.597 138.778C417.45 139.176 420.186 139.71 422.802 140.381C418.647 137.555 413.97 135.352 408.781 133.781ZM409.916 146.064C411.275 148.702 412.499 151.526 413.574 154.554C417.237 154.09 420.806 153.727 424.252 153.49C422.973 150.764 421.529 148.244 419.933 145.919C416.713 145.837 413.374 145.884 409.916 146.064ZM405.104 138.337C406.764 140.615 408.312 143.05 409.702 145.703C413.128 145.513 416.441 145.45 419.636 145.515C418.018 143.209 416.262 141.078 414.348 139.15C411.39 138.736 408.306 138.468 405.104 138.337ZM399.361 131.71C401.294 133.612 403.11 135.683 404.789 137.943C407.934 138.053 410.964 138.298 413.877 138.679C411.941 136.782 409.882 135.043 407.667 133.508C405.012 132.768 402.244 132.167 399.361 131.71ZM392.935 126.341C395.021 127.822 397.001 129.456 398.871 131.248C401.619 131.657 404.256 132.204 406.799 132.87C402.621 130.108 398.003 127.92 392.935 126.341ZM399.225 146.966C400.45 149.876 401.564 152.958 402.553 156.227C406.193 155.592 409.748 155.05 413.21 154.605C412.112 151.556 410.851 148.729 409.463 146.077C406.153 146.259 402.737 146.558 399.225 146.966ZM394.967 138.355C396.463 140.932 397.845 143.684 399.099 146.629C402.576 146.217 405.967 145.907 409.248 145.716C407.829 143.048 406.254 140.596 404.559 138.312C401.468 138.202 398.269 138.216 394.967 138.355ZM389.741 130.734C391.516 132.984 393.194 135.387 394.734 138.003C398.006 137.852 401.177 137.824 404.244 137.917C402.512 135.627 400.643 133.529 398.647 131.612C395.784 131.185 392.816 130.891 389.741 130.734ZM383.68 124.176C385.696 126.063 387.612 128.109 389.407 130.346C392.426 130.483 395.339 130.755 398.156 131.15C396.129 129.254 393.985 127.527 391.708 125.991C389.132 125.249 386.454 124.647 383.68 124.176ZM377.248 118.99C379.311 120.424 381.286 122.001 383.17 123.722C385.809 124.145 388.352 124.701 390.817 125.363C386.67 122.689 382.137 120.574 377.248 118.99ZM388.778 148.457C389.934 151.565 390.995 154.836 391.953 158.278C395.45 157.534 398.867 156.878 402.223 156.289C401.225 153.007 400.103 149.913 398.863 146.999C395.588 147.387 392.214 147.885 388.778 148.457ZM384.79 139.124C386.183 141.957 387.479 144.961 388.672 148.139C392.107 147.561 395.467 147.074 398.744 146.68C397.465 143.712 396.044 140.96 394.521 138.368C391.367 138.511 388.12 138.766 384.79 139.124ZM380.024 130.648C381.666 133.186 383.207 135.901 384.644 138.794C387.942 138.433 391.161 138.168 394.287 138.015C392.717 135.384 391.011 132.966 389.201 130.708C386.233 130.57 383.176 130.548 380.024 130.648ZM374.396 123.132C376.284 125.353 378.086 127.728 379.772 130.302C382.894 130.191 385.923 130.2 388.867 130.32C387.019 128.053 385.048 125.98 382.969 124.078C380.202 123.636 377.344 123.32 374.396 123.132ZM368.025 116.647C370.124 118.515 372.135 120.543 374.043 122.752C376.936 122.92 379.739 123.213 382.458 123.624C380.34 121.733 378.115 120.013 375.776 118.478C373.286 117.727 370.69 117.133 368.025 116.647ZM361.614 111.647C363.647 113.03 365.604 114.554 367.494 116.199C370.025 116.635 372.473 117.2 374.858 117.858C370.754 115.277 366.325 113.226 361.614 111.647ZM378.81 150.34C379.946 153.585 381.004 156.982 381.98 160.535C385.265 159.736 388.473 159.024 391.65 158.347C390.684 154.896 389.616 151.618 388.452 148.505C385.309 149.033 382.075 149.667 378.81 150.34ZM374.915 140.451C376.264 143.484 377.53 146.682 378.714 150.038C381.98 149.36 385.205 148.734 388.35 148.2C387.146 145.01 385.841 141.994 384.433 139.157C381.334 139.496 378.153 139.937 374.915 140.451ZM370.343 131.28C371.911 134.063 373.391 137.022 374.789 140.141C378.019 139.622 381.195 139.173 384.287 138.827C382.828 135.916 381.251 133.209 379.583 130.661C376.58 130.766 373.5 130.971 370.343 131.28ZM365.087 122.942C366.871 125.439 368.566 128.117 370.179 130.958C373.304 130.644 376.354 130.43 379.331 130.315C377.614 127.725 375.783 125.335 373.86 123.107C371.014 122.94 368.091 122.883 365.087 122.942ZM359.069 115.534C361.067 117.723 362.988 120.072 364.817 122.603C367.791 122.533 370.687 122.577 373.507 122.726C371.545 120.487 369.478 118.432 367.316 116.549C364.645 116.091 361.895 115.753 359.069 115.534ZM352.493 109.199C354.639 111.025 356.707 113.012 358.697 115.16C361.467 115.358 364.161 115.674 366.783 116.101C364.623 114.261 362.375 112.581 360.031 111.076C357.598 110.314 355.075 109.705 352.493 109.199ZM346.036 104.313C348.032 105.642 349.959 107.115 351.843 108.679C354.268 109.127 356.623 109.695 358.923 110.357C354.876 107.877 350.571 105.876 346.036 104.313ZM369.499 152.434C370.651 155.793 371.747 159.277 372.767 162.928C375.769 162.123 378.771 161.322 381.697 160.605C380.717 157.044 379.652 153.647 378.51 150.398C375.561 151.01 372.539 151.711 369.499 152.434ZM365.553 142.145C366.898 145.343 368.199 148.641 369.409 152.145C372.444 151.42 375.468 150.711 378.414 150.095C377.224 146.733 375.95 143.535 374.593 140.498C371.638 140.973 368.615 141.533 365.553 142.145ZM361.021 132.441C362.558 135.43 364.041 138.544 365.439 141.85C368.496 141.235 371.517 140.667 374.467 140.187C373.06 137.062 371.571 134.098 369.991 131.313C367.063 131.605 364.071 131.983 361.021 132.441ZM355.887 123.435C357.618 126.179 359.287 129.067 360.876 132.138C363.919 131.674 366.903 131.29 369.825 130.99C368.19 128.132 366.459 125.462 364.648 122.954C361.793 123.02 358.875 123.176 355.887 123.435ZM350.156 115.237C352.075 117.701 353.928 120.322 355.705 123.12C358.661 122.856 361.551 122.691 364.38 122.615C362.52 120.068 360.569 117.705 358.536 115.509C355.809 115.313 353.017 115.22 350.156 115.237ZM343.761 107.939C345.863 110.102 347.906 112.408 349.868 114.904C352.699 114.875 355.463 114.955 358.164 115.134C356.089 112.923 353.929 110.888 351.687 109.024C349.114 108.544 346.468 108.187 343.761 107.939ZM337.085 101.821C339.24 103.59 341.337 105.504 343.371 107.57C346.021 107.796 348.605 108.14 351.133 108.581C348.969 106.819 346.738 105.2 344.43 103.744C342.046 102.978 339.591 102.348 337.085 101.821ZM330.521 96.9912C332.515 98.2972 334.455 99.7417 336.361 101.269C338.619 101.717 340.851 102.219 343.013 102.857C339.039 100.486 334.873 98.5324 330.521 96.9912ZM360.918 154.595C362.127 158.022 363.288 161.578 364.4 165.262C367.121 164.48 369.826 163.715 372.49 163C371.468 159.348 370.373 155.857 369.219 152.499C366.49 153.151 363.716 153.858 360.918 154.595ZM356.861 144.029C358.231 147.317 359.548 150.75 360.813 154.322C363.614 153.581 366.395 152.866 369.128 152.21C367.914 148.701 366.608 145.403 365.257 142.202C362.501 142.756 359.698 143.37 356.861 144.029ZM352.243 133.943C353.789 137.078 355.297 140.32 356.734 143.752C359.574 143.088 362.383 142.466 365.143 141.907C363.738 138.596 362.248 135.48 360.703 132.489C357.928 132.909 355.111 133.392 352.243 133.943ZM347.095 124.427C348.816 127.366 350.502 130.407 352.111 133.655C354.973 133.1 357.788 132.611 360.558 132.185C358.959 129.108 357.28 126.213 355.538 123.468C352.774 123.713 349.965 124.025 347.095 124.427ZM341.421 115.589C343.31 118.289 345.157 121.113 346.934 124.13C349.791 123.725 352.591 123.404 355.345 123.153C353.546 120.34 351.663 117.723 349.72 115.249C347.007 115.275 344.245 115.381 341.421 115.589ZM335.231 107.533C337.28 109.961 339.282 112.529 341.22 115.279C344.013 115.066 346.747 114.952 349.432 114.916C347.439 112.403 345.364 110.085 343.228 107.913C340.617 107.69 337.954 107.556 335.231 107.533ZM328.614 100.472C330.767 102.568 332.877 104.8 334.926 107.205C337.62 107.216 340.253 107.337 342.837 107.543C340.704 105.403 338.5 103.436 336.235 101.619C333.752 101.122 331.206 100.75 328.614 100.472ZM321.73 94.4522C323.909 96.1782 326.046 98.0405 328.133 100.044C330.637 100.295 333.106 100.615 335.51 101.066C333.356 99.3791 331.147 97.8304 328.883 96.4205C326.549 95.6513 324.163 94.9983 321.73 94.4522ZM315.069 89.6813C317.076 90.9725 319.038 92.4038 320.977 93.9046C323.136 94.3633 325.275 94.8681 327.358 95.5012C323.411 93.1729 319.313 91.2315 315.069 89.6813ZM353.197 156.681C354.509 160.135 355.781 163.721 357.022 167.405C359.429 166.674 361.775 166.016 364.138 165.338C363.023 161.652 361.859 158.095 360.646 154.667C358.179 155.317 355.715 155.965 353.197 156.681ZM348.876 145.97C350.322 149.32 351.723 152.818 353.094 156.418C355.61 155.7 358.077 155.045 360.541 154.394C359.272 150.821 357.949 147.388 356.574 144.097C354.033 144.689 351.48 145.295 348.876 145.97ZM344.114 135.622C345.702 138.841 347.246 142.216 348.755 145.704C351.355 145.027 353.908 144.414 356.447 143.819C355.007 140.387 353.5 137.134 351.95 134.001C349.368 134.499 346.769 135.021 344.114 135.622ZM338.878 125.734C340.617 128.794 342.314 132.005 343.971 135.351C346.628 134.746 349.233 134.215 351.818 133.712C350.202 130.46 348.51 127.415 346.78 124.475C344.18 124.842 341.558 125.242 338.878 125.734ZM333.139 116.41C335.036 119.287 336.901 122.28 338.714 125.456C341.394 124.959 344.018 124.55 346.619 124.178C344.831 121.154 342.974 118.323 341.073 115.622C338.468 115.819 335.834 116.064 333.139 116.41ZM326.956 107.761C328.996 110.405 331.004 113.168 332.96 116.119C335.639 115.769 338.26 115.517 340.853 115.314C338.894 112.551 336.868 109.98 334.796 107.545C332.228 107.534 329.617 107.601 326.956 107.761ZM320.401 99.9426C322.546 102.299 324.66 104.778 326.723 107.437C329.362 107.271 331.943 107.214 334.49 107.217C332.39 104.772 330.226 102.512 328.017 100.39C325.527 100.14 322.982 100.004 320.401 99.9426ZM313.518 93.0206C315.736 95.0629 317.919 97.2452 320.062 99.5783C322.591 99.6274 325.093 99.7339 327.536 99.9614C325.364 97.9045 323.138 96.0077 320.867 94.2479C318.463 93.7339 316.011 93.3291 313.518 93.0206ZM306.432 87.093C308.66 88.7923 310.854 90.6327 313.015 92.5969C315.418 92.8769 317.79 93.2315 320.114 93.7001C317.917 92.0359 315.677 90.5069 313.395 89.1074C311.111 88.3355 308.791 87.6606 306.432 87.093ZM299.62 82.3615C301.656 83.6438 303.66 85.0642 305.647 86.548C307.73 87.0235 309.793 87.5541 311.819 88.19C307.864 85.8851 303.8 83.9278 299.62 82.3615ZM346.49 158.673C347.932 162.138 349.348 165.714 350.743 169.39C352.752 168.755 354.785 168.091 356.771 167.484C355.527 163.799 354.253 160.212 352.938 156.758C350.812 157.366 348.647 158.024 346.49 158.673ZM341.806 147.894C343.359 151.275 344.879 154.805 346.382 158.409C348.543 157.758 350.706 157.104 352.835 156.494C351.461 152.893 350.056 149.394 348.607 146.043C346.363 146.628 344.09 147.253 341.806 147.894ZM336.755 137.391C338.427 140.667 340.062 144.11 341.681 147.626C343.969 146.982 346.239 146.364 348.485 145.777C346.971 142.287 345.423 138.911 343.83 135.69C341.496 136.221 339.139 136.786 336.755 137.391ZM331.315 127.255C333.111 130.398 334.87 133.718 336.611 137.119C338.998 136.51 341.35 135.953 343.686 135.419C342.025 132.072 340.324 128.855 338.58 125.794C336.187 126.236 333.767 126.719 331.315 127.255ZM325.474 117.583C327.396 120.563 329.281 123.722 331.147 126.975C333.602 126.435 336.014 125.962 338.409 125.517C336.592 122.342 334.727 119.332 332.825 116.458C330.409 116.774 327.955 117.154 325.474 117.583ZM319.21 108.478C321.261 111.271 323.281 114.215 325.274 117.292C327.761 116.858 330.211 116.49 332.633 116.169C330.665 113.21 328.648 110.424 326.595 107.775C324.175 107.93 321.699 108.192 319.21 108.478ZM312.569 100.041C314.737 102.612 316.881 105.309 318.992 108.171C321.475 107.879 323.934 107.635 326.348 107.473C324.26 104.796 322.125 102.287 319.953 99.9201C317.533 99.8735 315.063 99.9308 312.569 100.041ZM305.612 92.3717C307.871 94.681 310.107 97.114 312.31 99.713C314.766 99.5968 317.204 99.5212 319.59 99.5547C317.405 97.1953 315.177 94.9957 312.913 92.9371C310.518 92.6561 308.082 92.4734 305.612 92.3717ZM298.418 85.5696C300.73 87.5829 303.019 89.7205 305.279 92.0138C307.688 92.1017 310.07 92.2565 312.41 92.5131C310.161 90.4941 307.874 88.6216 305.554 86.8868C303.21 86.3501 300.831 85.9115 298.418 85.5696ZM291.124 79.7275C293.418 81.4099 295.691 83.218 297.94 85.1554C300.246 85.4667 302.525 85.8542 304.768 86.3412C302.533 84.7055 300.267 83.1893 297.971 81.8046C295.714 81.0225 293.435 80.3178 291.124 79.7275ZM284.038 74.9865C286.167 76.2901 288.28 77.6918 290.375 79.1994C292.383 79.6896 294.372 80.2495 296.338 80.8871C292.318 78.5779 288.224 76.5761 284.038 74.9865ZM340.817 160.392C342.382 163.849 343.935 167.388 345.468 171.058C347.163 170.505 348.823 169.995 350.499 169.467C349.103 165.789 347.684 162.214 346.239 158.747C344.437 159.289 342.643 159.819 340.817 160.392ZM335.711 149.659C337.388 153.073 339.062 156.513 340.707 160.139C342.531 159.566 344.33 159.026 346.132 158.484C344.626 154.876 343.102 151.347 341.546 147.964C339.617 148.507 337.668 149.077 335.711 149.659ZM330.3 139.122C332.078 142.445 333.842 145.859 335.587 149.404C337.542 148.821 339.494 148.242 341.422 147.697C339.799 144.177 338.159 140.734 336.482 137.457C334.444 137.978 332.372 138.551 330.3 139.122ZM324.562 128.856C326.445 132.07 328.31 135.412 330.159 138.862C332.228 138.29 334.302 137.708 336.338 137.184C334.592 133.779 332.827 130.46 331.025 127.313C328.898 127.783 326.728 128.322 324.562 128.856ZM318.483 118.946C320.474 122.029 322.445 125.258 324.402 128.59C326.564 128.055 328.734 127.506 330.857 127.034C328.984 123.775 327.09 120.616 325.16 117.631C322.964 118.016 320.724 118.479 318.483 118.946ZM312.059 109.487C314.157 112.41 316.235 115.488 318.298 118.672C320.533 118.203 322.771 117.729 324.96 117.34C322.962 114.263 320.94 111.301 318.884 108.509C316.641 108.774 314.355 109.121 312.059 109.487ZM305.289 100.58C307.491 103.315 309.676 106.194 311.843 109.203C314.129 108.833 316.409 108.474 318.644 108.204C316.525 105.341 314.378 102.621 312.202 100.05C309.929 100.159 307.619 100.348 305.289 100.58ZM298.191 92.3221C300.49 94.8453 302.778 97.4754 305.044 100.279C307.359 100.043 309.658 99.8399 311.917 99.7237C309.7 97.1212 307.456 94.6588 305.183 92.3501C302.883 92.265 300.551 92.2588 298.191 92.3221ZM290.852 84.8064C293.219 87.0777 295.577 89.4481 297.913 91.9993C300.236 91.9292 302.536 91.9176 304.802 91.9895C302.512 89.6822 300.196 87.5113 297.854 85.4912C295.549 85.1787 293.215 84.9494 290.852 84.8064ZM283.352 78.1239C285.748 80.1106 288.136 82.1952 290.504 84.4518C292.804 84.5801 295.079 84.7831 297.325 85.0702C295.005 83.0936 292.662 81.2404 290.295 79.5342C288.006 78.9745 285.693 78.4979 283.352 78.1239ZM275.818 72.3583C278.186 74.0343 280.548 75.7925 282.892 77.7183C285.11 78.0581 287.304 78.4845 289.477 78.9901C287.205 77.3857 284.918 75.8774 282.608 74.5116C280.362 73.7109 278.104 72.9718 275.818 72.3583ZM268.733 67.7618C270.881 69.0536 273.027 70.3727 275.158 71.8591C277.093 72.36 279.009 72.9538 280.916 73.5923C276.905 71.3277 272.847 69.3525 268.733 67.7618ZM336.126 161.915C337.832 165.335 339.528 168.89 341.222 172.473C342.556 172.028 343.9 171.569 345.225 171.135C343.692 167.467 342.139 163.925 340.575 160.471C339.104 160.936 337.608 161.435 336.126 161.915ZM330.647 151.201C332.44 154.564 334.221 158.104 335.999 161.667C337.488 161.183 338.987 160.685 340.464 160.218C338.817 156.589 337.141 153.15 335.462 149.736C333.865 150.212 332.261 150.7 330.647 151.201ZM324.785 140.658C326.7 144.009 328.615 147.386 330.516 150.947C332.134 150.443 333.738 149.958 335.337 149.48C333.589 145.932 331.821 142.518 330.041 139.194C328.294 139.675 326.557 140.138 324.785 140.658ZM318.663 130.338C320.662 133.587 322.654 136.931 324.639 140.398C326.415 139.875 328.15 139.416 329.9 138.934C328.047 135.481 326.176 132.138 324.289 128.922C322.421 129.381 320.562 129.827 318.663 130.338ZM312.268 120.309C314.355 123.447 316.434 126.719 318.508 130.084C320.403 129.572 322.264 129.118 324.129 128.657C322.167 125.321 320.189 122.091 318.192 119.006C316.232 119.415 314.265 119.836 312.268 120.309ZM305.58 110.629C307.758 113.636 309.928 116.802 312.093 120.05C314.084 119.574 316.051 119.144 318.008 118.732C315.936 115.541 313.85 112.463 311.744 109.536C309.707 109.865 307.657 110.221 305.58 110.629ZM298.603 101.388C300.869 104.238 303.126 107.258 305.38 110.361C307.449 109.951 309.497 109.584 311.527 109.252C309.352 106.24 307.161 103.35 304.951 100.612C302.855 100.825 300.742 101.077 298.603 101.388ZM291.352 92.6806C293.697 95.3463 296.036 98.1814 298.371 101.109C300.5 100.795 302.607 100.531 304.693 100.313C302.419 97.5084 300.127 94.8539 297.82 92.3317C295.685 92.394 293.533 92.5005 291.352 92.6806ZM283.822 84.6052C286.246 87.0695 288.667 89.6526 291.081 92.3855C293.251 92.2 295.395 92.0796 297.521 92.0095C295.17 89.4525 292.799 87.0576 290.416 84.7839C288.239 84.6597 286.045 84.5896 283.822 84.6052ZM276.123 77.2456C278.593 79.4692 281.062 81.7941 283.524 84.2854C285.72 84.2619 287.89 84.3165 290.041 84.4278C287.646 82.1588 285.234 80.0417 282.81 78.049C280.601 77.7076 278.374 77.4262 276.123 77.2456ZM268.333 70.6857C270.809 72.635 273.282 74.6851 275.751 76.8936C277.95 77.0591 280.125 77.3161 282.283 77.6337C279.895 75.6903 277.492 73.8718 275.078 72.1872C272.846 71.607 270.601 71.0876 268.333 70.6857ZM260.641 65.0495C263.045 66.6876 265.447 68.4079 267.846 70.2812C269.995 70.6473 272.123 71.1205 274.24 71.6467C271.939 70.0703 269.629 68.5784 267.308 67.2286C265.099 66.4125 262.877 65.6789 260.641 65.0495ZM253.771 60.7113C255.806 61.9135 257.841 63.1332 259.874 64.4979C261.779 65.0141 263.667 65.6534 265.553 66.3044C261.65 64.1315 257.72 62.2829 253.771 60.7113ZM332.446 163.11C334.335 166.536 336.225 169.935 338.114 173.529C339.07 173.204 340.032 172.873 340.985 172.553C339.289 168.97 337.592 165.415 335.884 161.993C334.739 162.363 333.599 162.727 332.446 163.11ZM326.46 152.499C328.41 155.875 330.36 159.327 332.311 162.863C333.468 162.479 334.61 162.117 335.757 161.745C333.977 158.183 332.196 154.637 330.403 151.276C329.09 151.682 327.787 152.073 326.46 152.499ZM320.291 142.03C322.299 145.313 324.309 148.781 326.319 152.258C327.647 151.83 328.957 151.429 330.272 151.021C328.368 147.458 326.45 144.081 324.532 140.728C323.131 141.142 321.704 141.597 320.291 142.03ZM313.756 131.737C315.881 135.008 318.008 138.311 320.135 141.785C321.55 141.351 322.983 140.885 324.386 140.468C322.399 137.002 320.404 133.66 318.404 130.411C316.868 130.829 315.307 131.293 313.756 131.737ZM306.96 121.641C309.17 124.831 311.382 128.082 313.595 131.484C315.149 131.037 316.71 130.578 318.248 130.158C316.171 126.79 314.087 123.517 311.996 120.378C310.329 120.776 308.648 121.203 306.96 121.641ZM299.915 111.811C302.201 114.89 304.49 118.08 306.781 121.381C308.472 120.94 310.152 120.518 311.82 120.118C309.649 116.866 307.473 113.7 305.289 110.69C303.508 111.041 301.723 111.403 299.915 111.811ZM292.624 102.329C294.984 105.275 297.347 108.362 299.713 111.542C301.523 111.13 303.306 110.776 305.088 110.422C302.826 107.314 300.56 104.292 298.285 101.438C296.409 101.71 294.533 101.98 292.624 102.329ZM285.104 93.2845C287.53 96.0725 289.96 99.0173 292.393 102.048C294.304 101.695 296.175 101.434 298.053 101.158C295.708 98.2244 293.358 95.3849 291.001 92.714C289.047 92.8748 287.095 93.0277 285.104 93.2845ZM277.393 84.7795C279.875 87.383 282.364 90.1537 284.854 93.008C286.835 92.7477 288.78 92.5855 290.727 92.4194C288.305 89.6861 285.877 87.0787 283.445 84.6149C281.441 84.6304 279.434 84.6506 277.393 84.7795ZM269.468 76.896C272.007 79.3047 274.551 81.823 277.101 84.4888C279.134 84.3537 281.135 84.3194 283.133 84.2958C280.653 81.7953 278.167 79.4507 275.678 77.2223C273.622 77.0621 271.558 76.9245 269.468 76.896ZM261.473 69.7337C264.024 71.9012 266.58 74.1515 269.144 76.5731C271.217 76.5932 273.265 76.7205 275.307 76.8702C272.801 74.6398 270.29 72.5718 267.778 70.6087C265.689 70.2517 263.59 69.9469 261.473 69.7337ZM253.521 63.3801C256.018 65.2613 258.52 67.2198 261.029 69.3388C263.132 69.5389 265.214 69.857 267.289 70.2034C264.798 68.2748 262.304 66.5001 259.809 64.8239C257.724 64.2633 255.626 63.793 253.521 63.3801ZM245.805 57.9382C248.167 59.5024 250.533 61.1255 252.908 62.8973C254.969 63.2856 257.019 63.7774 259.063 64.3115C256.669 62.7271 254.273 61.2734 251.877 59.9136C249.859 59.1592 247.832 58.5451 245.805 57.9382ZM238.927 53.6792C240.9 54.8288 242.876 55.9975 244.859 57.2892C246.661 57.8065 248.46 58.4027 250.256 59.0255C246.479 56.9605 242.701 55.2165 238.927 53.6792ZM362.212 223.425C361.286 221.566 360.36 219.727 359.438 217.922C360.891 221.186 362.343 224.384 363.795 227.748C363.267 226.307 362.742 224.847 362.212 223.425ZM323.347 153.537C325.453 156.867 327.562 160.224 329.684 163.72C330.488 163.448 331.275 163.203 332.073 162.94C330.121 159.409 328.17 155.953 326.219 152.579C325.268 152.889 324.3 153.224 323.347 153.537ZM316.645 143.169C318.823 146.473 321.006 149.836 323.198 153.298C324.155 152.983 325.124 152.649 326.077 152.338C324.065 148.862 322.052 145.391 320.041 142.108C318.914 142.455 317.781 142.809 316.645 143.169ZM309.741 132.882C311.978 136.114 314.23 139.51 316.483 142.926C317.622 142.564 318.756 142.211 319.886 141.863C317.757 138.391 315.629 135.077 313.503 131.809C312.25 132.165 311.008 132.502 309.741 132.882ZM302.574 122.802C304.894 125.982 307.224 129.255 309.564 132.633C310.838 132.249 312.083 131.915 313.342 131.556C311.124 128.152 308.909 124.899 306.695 121.708C305.326 122.063 303.958 122.417 302.574 122.802ZM295.156 112.962C297.562 116.077 299.972 119.234 302.398 122.555C303.78 122.169 305.149 121.805 306.516 121.448C304.219 118.144 301.925 114.951 299.634 111.87C298.153 112.209 296.653 112.589 295.156 112.962ZM287.531 103.382C289.997 106.387 292.473 109.49 294.962 112.707C296.454 112.334 297.954 111.942 299.431 111.601C297.058 108.417 294.687 105.326 292.319 102.377C290.739 102.673 289.128 103.044 287.531 103.382ZM279.708 94.1439C282.23 97.0161 284.767 100.024 287.313 103.119C288.908 102.779 290.517 102.404 292.095 102.104C289.654 99.0695 287.216 96.1231 284.783 93.3333C283.107 93.5599 281.403 93.863 279.708 94.1439ZM271.715 85.333C274.282 88.0487 276.868 90.9212 279.461 93.8685C281.158 93.5835 282.858 93.2888 284.534 93.0592C282.031 90.197 279.53 87.4236 277.036 84.8142C275.277 84.9379 273.494 85.1398 271.715 85.333ZM263.593 77.0428C266.189 79.5719 268.805 82.2737 271.428 85.04C273.207 84.842 274.985 84.6506 276.743 84.5232C274.184 81.8556 271.628 79.3087 269.08 76.8994C267.266 76.8894 265.428 76.9688 263.593 77.0428ZM255.314 69.3635C257.946 71.7055 260.59 74.1411 263.252 76.7258C265.094 76.6447 266.932 76.578 268.753 76.5833C266.153 74.1351 263.559 71.8522 260.97 69.6649C259.098 69.494 257.205 69.4342 255.314 69.3635ZM247.045 62.3771C249.662 64.486 252.289 66.6667 254.937 69.013C256.823 69.0749 258.707 69.1538 260.576 69.3147C257.997 67.1477 255.425 65.144 252.86 63.228C250.93 62.869 248.988 62.618 247.045 62.3771ZM238.901 56.1718C241.442 58.0084 243.994 59.9172 246.565 61.9768C248.474 62.2017 250.382 62.4361 252.278 62.7714C249.784 60.9259 247.299 59.2373 244.819 57.6211C242.851 57.0588 240.876 56.603 238.901 56.1718ZM231.079 50.8447C233.456 52.3735 235.843 53.9634 238.247 55.6856C240.124 56.08 242.002 56.465 243.873 56.9719C241.557 55.4883 239.25 54.1566 236.947 52.8653C234.99 52.1142 233.034 51.4606 231.079 50.8447ZM224.211 46.6712C226.158 47.787 228.111 48.9445 230.077 50.1889C231.727 50.6885 233.377 51.1683 235.029 51.7572C231.402 49.8044 227.8 48.1661 224.211 46.6712ZM353.599 205.573C352.765 204.181 351.931 202.786 351.098 201.403C352.763 204.513 354.441 207.781 356.116 211.027C355.277 209.187 354.439 207.378 353.599 205.573ZM358.842 214.441C357.517 212.165 356.199 209.932 354.883 207.712C355.885 209.886 356.885 212.2 357.887 214.426C359.072 216.725 360.254 218.98 361.442 221.322C360.576 219.017 359.712 216.692 358.842 214.441ZM364.084 223.597C362.62 221.028 361.153 218.438 359.7 215.941C360.621 218.339 361.529 220.891 362.444 223.351C363.747 225.937 365.057 228.627 366.366 231.293C365.605 228.726 364.855 226.096 364.084 223.597ZM314.033 143.985C316.357 147.24 318.698 150.59 321.052 154.013C321.687 153.8 322.324 153.587 322.959 153.377C320.765 149.921 318.579 146.547 316.399 143.246C315.609 143.493 314.828 143.727 314.033 143.985ZM306.635 133.841C309.033 137.078 311.438 140.35 313.864 143.743C314.663 143.484 315.445 143.25 316.237 143.002C313.981 139.588 311.725 136.187 309.486 132.954C308.541 133.241 307.585 133.546 306.635 133.841ZM299.088 123.821C301.527 126.979 303.99 130.275 306.459 133.604C307.407 133.31 308.365 132.993 309.308 132.706C306.97 129.335 304.639 126.05 302.319 122.876C301.249 123.178 300.164 123.507 299.088 123.821ZM291.31 113.949C293.818 117.047 296.353 120.289 298.896 123.578C299.979 123.261 301.067 122.933 302.144 122.629C299.714 119.308 297.299 116.146 294.889 113.03C293.7 113.327 292.509 113.629 291.31 113.949ZM283.249 104.293C285.856 107.352 288.467 110.435 291.11 113.695C292.312 113.373 293.504 113.075 294.695 112.776C292.2 109.556 289.718 106.448 287.246 103.443C285.916 103.721 284.595 103.977 283.249 104.293ZM275.057 94.944C277.696 97.8749 280.351 100.893 283.028 104.03C284.376 103.71 285.696 103.46 287.028 103.18C284.474 100.08 281.93 97.0677 279.399 94.1932C277.957 94.4302 276.517 94.6588 275.057 94.944ZM266.738 85.9529C269.412 88.7501 272.111 91.6757 274.825 94.6862C276.278 94.3992 277.715 94.1584 279.152 93.9178C276.548 90.9643 273.951 88.0859 271.372 85.3665C269.835 85.5356 268.292 85.7266 266.738 85.9529ZM258.305 77.3788C261.004 80.0207 263.733 82.8199 266.475 85.6819C268.019 85.4531 269.557 85.2475 271.086 85.0736C268.446 82.2971 265.814 79.5894 263.203 77.0531C261.579 77.1242 259.945 77.2385 258.305 77.3788ZM249.803 69.312C252.509 71.7728 255.249 74.4039 258 77.09C259.627 76.9454 261.25 76.8144 262.861 76.736C260.189 74.1497 257.531 71.6823 254.889 69.3405C253.202 69.2854 251.505 69.2851 249.803 69.312ZM241.204 61.8373C243.931 64.1221 246.674 66.4832 249.448 68.9977C251.141 68.964 252.832 68.9448 254.512 68.99C251.832 66.6245 249.172 64.4269 246.524 62.3048C244.756 62.0963 242.982 61.9486 241.204 61.8373ZM232.688 55.0321C235.372 57.0881 238.07 59.2092 240.802 61.4883C242.553 61.5891 244.303 61.7113 246.045 61.9042C243.417 59.812 240.81 57.8752 238.214 56.0147C236.374 55.6278 234.532 55.3072 232.688 55.0321ZM224.373 48.978C226.954 50.7693 229.551 52.6303 232.177 54.6301C233.973 54.8868 235.769 55.1686 237.561 55.5292C235.04 53.7398 232.54 52.0954 230.049 50.5186C228.156 49.9423 226.264 49.4298 224.373 48.978ZM216.468 43.7709C218.854 45.2613 221.255 46.8187 223.681 48.488C225.469 48.9004 227.258 49.3425 229.049 49.8629C226.728 48.4168 224.426 47.1039 222.132 45.8363C220.239 45.0893 218.35 44.3935 216.468 43.7709ZM209.632 39.6879C211.543 40.7651 213.47 41.9138 215.408 43.1064C216.963 43.6023 218.518 44.0959 220.081 44.6743C216.565 42.8057 213.083 41.1523 209.632 39.6879ZM349.177 196.242C347.585 193.884 345.994 191.531 344.415 189.228C345.703 191.547 346.991 193.863 348.283 196.24C349.694 198.558 351.118 200.952 352.54 203.338C351.419 200.944 350.298 198.575 349.177 196.242ZM355.121 205.069C353.426 202.521 351.75 200.05 350.068 197.554C351.319 200.174 352.571 202.782 353.823 205.476C355.286 207.933 356.744 210.354 358.215 212.862C357.187 210.222 356.155 207.637 355.121 205.069ZM361.068 214.191C359.307 211.482 357.535 208.728 355.794 206.101C356.889 208.835 357.985 211.546 359.073 214.361C360.615 217.003 362.176 219.768 363.731 222.496C362.853 219.669 361.959 216.936 361.068 214.191ZM366.797 222.98C365.046 220.265 363.316 217.643 361.575 214.969C362.491 217.805 363.414 220.596 364.316 223.519C365.839 226.182 367.354 228.791 368.882 231.493C368.204 228.587 367.496 225.801 366.797 222.98ZM304.55 134.509C307.059 137.659 309.609 140.973 312.16 144.29C312.649 144.129 313.133 143.975 313.619 143.819C311.193 140.435 308.785 137.151 306.387 133.92C305.777 134.113 305.161 134.316 304.55 134.509ZM296.482 124.582C299.096 127.756 301.714 130.946 304.368 134.275C304.981 134.08 305.598 133.877 306.211 133.684C303.739 130.358 301.271 127.053 298.829 123.896C298.048 124.123 297.268 124.346 296.482 124.582ZM288.255 114.743C290.908 117.85 293.59 121.072 296.284 124.341C297.073 124.102 297.854 123.881 298.637 123.653C296.094 120.369 293.555 117.11 291.047 114.017C290.115 114.26 289.195 114.48 288.255 114.743ZM279.94 105.132C282.611 108.131 285.333 111.325 288.051 114.506C288.99 114.242 289.915 114.009 290.846 113.763C288.198 110.502 285.581 107.412 282.97 104.353C281.966 104.594 280.948 104.878 279.94 105.132ZM271.343 95.7497C274.119 98.7287 276.898 101.713 279.726 104.885C280.73 104.63 281.75 104.336 282.75 104.091C280.07 100.956 277.411 97.9354 274.769 95.0063C273.633 95.2353 272.485 95.5008 271.343 95.7497ZM262.614 86.6218C265.42 89.4867 268.247 92.4281 271.106 95.4918C272.251 95.2409 273.399 94.9792 274.537 94.7486C271.814 91.7345 269.107 88.8027 266.425 86.0038C265.16 86.1915 263.889 86.399 262.614 86.6218ZM253.782 77.8236C256.608 80.5564 259.467 83.4121 262.349 86.3502C263.625 86.1245 264.895 85.9226 266.161 85.7326C263.408 82.8644 260.666 80.0597 257.956 77.4134C256.569 77.5328 255.181 77.6526 253.782 77.8236ZM244.891 69.4381C247.72 72.0144 250.591 74.7468 253.478 77.5334C254.878 77.3583 256.264 77.2459 257.651 77.1243C254.886 74.4311 252.13 71.7879 249.41 69.3222C247.906 69.3429 246.405 69.3466 244.891 69.4381ZM236.025 61.5833C238.831 63.974 241.684 66.5333 244.55 69.1369C246.058 69.04 247.552 69.0338 249.048 69.0078C246.263 66.4922 243.503 64.0977 240.766 61.8138C239.188 61.7125 237.611 61.6 236.025 61.5833ZM227.137 54.3189C229.95 56.5446 232.781 58.8282 235.656 61.2706C237.231 61.2804 238.797 61.3734 240.364 61.4646C237.598 59.1656 234.865 57.0262 232.148 54.9573C230.479 54.7102 228.81 54.4684 227.137 54.3189ZM218.402 47.6986C221.144 49.699 223.905 51.7589 226.708 53.9692C228.353 54.1079 229.996 54.3238 231.637 54.555C228.952 52.5214 226.296 50.6317 223.658 48.816C221.905 48.4017 220.151 48.0016 218.402 47.6986ZM209.944 41.8001C212.557 43.5438 215.189 45.357 217.859 47.2941C219.559 47.578 221.262 47.9397 222.966 48.3264C220.417 46.5874 217.896 44.9758 215.39 43.4344C213.571 42.8433 211.752 42.2703 209.944 41.8001ZM201.977 36.7165C204.364 38.1653 206.773 39.692 209.209 41.3052C210.91 41.7334 212.619 42.2365 214.331 42.7703C212.015 41.3664 209.722 40.0676 207.443 38.8282C205.615 38.0868 203.786 37.3412 201.977 36.7165ZM196.137 33.2257C197.688 34.0968 199.279 35.0987 200.852 36.04C202.317 36.5291 203.793 37.0728 205.273 37.6436C202.194 36.0293 199.146 34.549 196.137 33.2257ZM330.754 168.929C329.837 167.767 328.919 166.6 328.002 165.437C330.12 168.347 332.282 171.442 334.439 174.512C333.201 172.589 331.985 170.808 330.754 168.929ZM335.167 174.53C334.303 173.422 333.457 172.371 332.593 171.263C333.335 172.404 334.068 173.49 334.812 174.65C334.931 174.611 335.049 174.571 335.167 174.53ZM337.704 177.829C336.919 176.809 336.124 175.758 335.345 174.755C335.216 174.799 335.088 174.842 334.96 174.885C335.64 175.949 336.327 177.064 337.008 178.136C338.571 180.366 340.113 182.509 341.687 184.782C340.356 182.419 339.029 180.112 337.704 177.829ZM351.388 195.902C349.425 193.273 347.496 190.749 345.549 188.171C346.832 190.763 348.115 193.469 349.398 196.14C351.158 198.746 352.904 201.293 354.676 203.949C353.582 201.244 352.489 198.526 351.388 195.902ZM358.068 205.029C356.056 202.275 354.025 199.461 352.041 196.795C353.15 199.45 354.247 202.243 355.349 204.981C357.145 207.684 358.975 210.535 360.791 213.33C359.885 210.552 358.988 207.72 358.068 205.029ZM364.518 213.842C362.524 211.093 360.557 208.429 358.577 205.725C359.499 208.433 360.391 211.313 361.298 214.107C363.074 216.83 364.839 219.511 366.626 222.279C365.924 219.462 365.241 216.571 364.518 213.842ZM370.908 222.818C368.915 220.011 366.897 217.125 364.934 214.411C365.655 217.149 366.331 220.075 367.03 222.9C368.791 225.638 370.594 228.555 372.377 231.391C371.886 228.539 371.429 225.58 370.908 222.818ZM335.586 174.673C335.952 175.142 336.323 175.624 336.692 176.099C336.398 175.594 336.106 175.098 335.812 174.596L335.586 174.673ZM327.719 164.69C328.192 165.291 328.66 165.88 329.134 166.486C328.723 165.861 328.313 165.248 327.902 164.626C327.841 164.647 327.779 164.669 327.719 164.69ZM294.867 125.054C297.573 128.135 300.349 131.426 303.112 134.677C303.449 134.569 303.786 134.461 304.122 134.354C301.466 131.026 298.843 127.83 296.227 124.657C295.773 124.79 295.325 124.914 294.867 125.054ZM286.178 115.366C288.989 118.469 291.796 121.559 294.658 124.816C295.12 124.674 295.572 124.549 296.029 124.415C293.334 121.149 290.65 117.927 287.996 114.821C287.393 114.997 286.781 115.192 286.178 115.366ZM277.387 105.803C280.219 108.83 283.082 111.948 285.967 115.131C286.572 114.955 287.186 114.76 287.791 114.584C285.072 111.404 282.346 108.198 279.675 105.202C278.914 105.396 278.15 105.6 277.387 105.803ZM268.465 96.3739C271.32 99.3123 274.242 102.445 277.157 105.559C277.924 105.355 278.69 105.153 279.452 104.957C276.623 101.787 273.838 98.7869 271.06 95.8108C270.196 95.9963 269.336 96.1697 268.465 96.3739ZM259.331 87.1948C262.264 90.0916 265.215 93.0376 268.212 96.1195C269.089 95.9119 269.954 95.7409 270.824 95.5532C267.957 92.485 265.123 89.5393 262.309 86.6714C261.318 86.8406 260.33 86.9981 259.331 87.1948ZM250.152 78.3421C253.099 81.1253 256.067 83.9692 259.08 86.9421C260.073 86.7442 261.058 86.5727 262.044 86.3998C259.151 83.4553 256.281 80.5945 253.445 77.857C252.352 77.9967 251.25 78.1765 250.152 78.3421ZM240.922 69.8139C243.867 72.4641 246.854 75.2304 249.869 78.0739C250.96 77.9074 252.056 77.7117 253.141 77.5665C250.242 74.7735 247.359 72.0385 244.518 69.4577C243.324 69.5443 242.12 69.7 240.922 69.8139ZM231.696 61.6931C234.621 64.1854 237.604 66.8371 240.6 69.5276C241.798 69.4095 243.001 69.2626 244.196 69.1713C241.317 66.5621 238.447 63.9878 235.63 61.5934C234.321 61.5946 233.008 61.6523 231.696 61.6931ZM222.51 54.0645C225.404 56.3863 228.353 58.8579 231.32 61.3803C232.63 61.3342 233.94 61.2854 235.247 61.2811C232.361 58.8364 229.511 56.519 226.688 54.2941C225.296 54.1834 223.903 54.1222 222.51 54.0645ZM213.365 46.996C216.244 49.1567 219.136 51.3511 222.089 53.7145C223.48 53.7659 224.87 53.8373 226.259 53.9442C223.419 51.7133 220.622 49.6356 217.845 47.6207C216.35 47.3766 214.857 47.1743 213.365 46.996ZM204.469 40.5697C207.229 42.4959 210.011 44.4779 212.843 46.595C214.328 46.7633 215.815 46.9776 217.302 47.2164C214.568 45.2431 211.874 43.4023 209.201 41.6326C207.62 41.241 206.042 40.8862 204.469 40.5697ZM195.992 34.877C198.559 36.533 201.154 38.2621 203.786 40.0874C205.341 40.3883 206.903 40.7549 208.466 41.1379C205.898 39.4522 203.363 37.8734 200.851 36.3701C199.225 35.8383 197.605 35.3347 195.992 34.877ZM188.322 30.0897C190.522 31.3984 192.761 32.8092 195.01 34.2462C196.572 34.6731 198.148 35.1809 199.726 35.6944C197.423 34.3366 195.144 33.0512 192.888 31.8433C191.357 31.2202 189.836 30.6439 188.322 30.0897ZM182.38 26.6653C183.777 27.4402 185.2 28.2804 186.617 29.1073C187.928 29.5655 189.26 30.1089 190.587 30.6307C187.816 29.1981 185.081 27.878 182.38 26.6653ZM316.571 150.425C315.238 148.914 313.936 147.479 312.613 145.994C314.927 148.796 317.25 151.622 319.587 154.493C318.586 153.154 317.567 151.742 316.571 150.425ZM319.992 154.366C319.54 153.847 319.079 153.308 318.629 152.796C319.028 153.327 319.432 153.88 319.833 154.419L319.992 154.366ZM324.678 159.764C323.175 158.023 321.679 156.302 320.187 154.59L320.005 154.651C321.048 156.055 322.093 157.463 323.139 158.878C324.59 160.69 326.069 162.584 327.543 164.467C327.611 164.444 327.68 164.42 327.748 164.396C326.723 162.84 325.696 161.273 324.678 159.764ZM328.478 164.141C327.621 163.152 326.771 162.18 325.911 161.185C326.6 162.211 327.295 163.273 327.985 164.313C328.15 164.255 328.315 164.196 328.478 164.141ZM332.283 168.563C331.071 167.144 329.865 165.743 328.667 164.359C328.493 164.417 328.315 164.48 328.139 164.543C329.082 165.963 330.024 167.37 330.973 168.819C332.46 170.723 333.925 172.557 335.408 174.448L335.673 174.358C334.541 172.41 333.41 170.454 332.283 168.563ZM336.818 173.969C335.614 172.529 334.4 171.065 333.215 169.674C334.111 171.183 335.01 172.739 335.909 174.278C336.212 174.175 336.515 174.072 336.818 173.969ZM354.714 195.584C352.444 192.787 350.143 189.916 347.908 187.207C349.147 190.042 350.386 192.876 351.617 195.811C353.646 198.535 355.729 201.424 357.788 204.243C356.775 201.29 355.744 198.435 354.714 195.584ZM361.879 204.401C359.63 201.613 357.41 198.898 355.18 196.158C356.224 199.058 357.272 201.935 358.299 204.94C360.309 207.683 362.309 210.396 364.334 213.187C363.534 210.181 362.703 207.305 361.879 204.401ZM368.961 213.304C366.727 210.487 364.471 207.617 362.271 204.885C363.102 207.824 363.945 210.713 364.751 213.757C366.737 216.5 368.774 219.401 370.789 222.236C370.207 219.172 369.576 216.262 368.961 213.304ZM375.923 222.135C373.715 219.333 371.494 216.498 369.305 213.74C369.923 216.728 370.563 219.646 371.147 222.742C373.12 225.514 375.113 228.346 377.099 231.154C376.745 228.051 376.319 225.13 375.923 222.135ZM337.247 174.108C337.998 175.007 338.742 175.886 339.495 176.788C338.998 175.83 338.5 174.807 338.004 173.851L337.247 174.108ZM332.498 168.449C333.995 170.203 335.532 172.055 337.061 173.887L337.88 173.608C335.988 170.016 334.098 166.611 332.207 163.187C331.413 163.446 330.632 163.688 329.832 163.958C330.718 165.425 331.61 166.958 332.498 168.449ZM328.91 164.274C329.792 165.287 330.672 166.295 331.566 167.338C330.908 166.238 330.248 165.121 329.591 164.036C329.365 164.114 329.135 164.198 328.91 164.274ZM324.889 159.641C326.17 161.123 327.446 162.591 328.721 164.056C328.96 163.975 329.204 163.887 329.446 163.803C327.325 160.314 325.214 156.939 323.107 153.617C322.478 153.824 321.846 154.037 321.216 154.247C322.436 156.024 323.66 157.822 324.889 159.641ZM320.432 154.508C321.508 155.75 322.576 156.971 323.655 158.221C322.757 156.896 321.867 155.622 320.973 154.328C320.793 154.388 320.613 154.448 320.432 154.508ZM316.778 150.299C317.914 151.586 319.081 152.949 320.238 154.284C320.428 154.22 320.619 154.157 320.809 154.094C318.457 150.68 316.112 147.306 313.788 144.061C313.304 144.214 312.826 144.357 312.337 144.517C313.816 146.438 315.286 148.325 316.778 150.299ZM311.779 144.708C312.755 145.789 313.729 146.866 314.713 147.967C313.831 146.809 312.97 145.732 312.094 144.601C311.989 144.637 311.883 144.674 311.779 144.708ZM309.289 141.943C310.054 142.795 310.818 143.644 311.581 144.488C311.692 144.451 311.804 144.412 311.917 144.373C309.366 141.059 306.812 137.733 304.304 134.588C303.973 134.694 303.641 134.801 303.309 134.907C305.301 137.248 307.272 139.529 309.289 141.943ZM303.034 134.995C303.255 135.242 303.479 135.493 303.698 135.734C303.484 135.482 303.272 135.236 303.059 134.987L303.034 134.995ZM294.043 125.295C296.957 128.418 299.865 131.526 302.829 134.768L302.862 134.757C300.096 131.503 297.324 128.227 294.611 125.129C294.423 125.184 294.234 125.236 294.043 125.295ZM285.025 115.712C287.913 118.722 290.87 121.896 293.822 125.06C294.016 125 294.207 124.946 294.399 124.891C291.533 121.624 288.732 118.552 285.921 115.444C285.622 115.533 285.323 115.625 285.025 115.712ZM275.765 106.229C278.752 109.254 281.748 112.302 284.799 115.48C285.102 115.392 285.406 115.298 285.709 115.208C282.816 112.012 279.956 108.914 277.116 105.874C276.666 105.991 276.218 106.105 275.765 106.229ZM266.364 96.8553C269.39 99.8304 272.438 102.857 275.529 105.986C275.983 105.862 276.434 105.749 276.886 105.63C273.961 102.502 271.04 99.3865 268.177 96.4363C267.573 96.5742 266.972 96.7054 266.364 96.8553ZM256.965 87.7188C259.97 90.5755 263.045 93.5953 266.121 96.6175C266.723 96.4681 267.324 96.323 267.923 96.182C264.926 93.0973 261.977 90.1555 259.044 87.2582C258.354 87.4028 257.657 87.5721 256.965 87.7188ZM247.39 78.7966C250.457 81.6057 253.554 84.4841 256.697 87.4688C257.395 87.3196 258.096 87.1515 258.793 87.0052C255.769 84.0205 252.797 81.1868 249.84 78.3931C249.025 78.5193 248.208 78.6569 247.39 78.7966ZM237.709 70.1326C240.808 72.8582 243.924 75.6209 247.104 78.5294C247.923 78.3872 248.741 78.2531 249.558 78.1253C246.529 75.2679 243.535 72.5095 240.576 69.8482C239.621 69.9368 238.668 70.0153 237.709 70.1326ZM228.034 61.8022C231.109 64.3877 234.228 67.0737 237.384 69.846C238.344 69.7251 239.298 69.6517 240.254 69.5619C237.238 66.8545 234.245 64.2095 231.302 61.7029C230.213 61.729 229.127 61.7304 228.034 61.8022ZM218.518 53.9507C221.526 56.3606 224.603 58.9224 227.693 61.5181C228.774 61.4436 229.848 61.4232 230.925 61.3904C227.947 58.8594 224.982 56.368 222.078 54.0401C220.891 53.9913 219.705 53.9527 218.518 53.9507ZM209.085 46.5817C212.05 48.8314 215.069 51.2015 218.118 53.6383C219.289 53.6349 220.46 53.6501 221.63 53.6896C218.655 51.3125 215.737 49.093 212.838 46.9228C211.586 46.78 210.335 46.6747 209.085 46.5817ZM199.777 39.7599C202.699 41.848 205.63 43.9564 208.637 46.2314C209.863 46.3163 211.088 46.393 212.317 46.5219C209.429 44.3685 206.6 42.3701 203.787 40.4165C202.446 40.1601 201.112 39.9618 199.777 39.7599ZM190.815 33.5672C193.583 35.4212 196.375 37.3284 199.222 39.3558C200.516 39.5437 201.806 39.7011 203.105 39.9342C200.371 38.0464 197.683 36.282 195.019 34.5778C193.61 34.1969 192.214 33.8894 190.815 33.5672ZM182.403 28.105C184.927 29.6836 187.492 31.3498 190.086 33.0774C191.411 33.3723 192.729 33.625 194.064 33.9639C191.556 32.3756 189.081 30.8715 186.635 29.4422C185.212 28.9482 183.811 28.5398 182.403 28.105ZM175.063 23.5996C177.12 24.8008 179.248 26.1565 181.352 27.4605C182.645 27.8463 183.933 28.2141 185.236 28.635C183.073 27.3917 180.918 26.1707 178.803 25.0496C177.541 24.5186 176.309 24.0808 175.063 23.5996ZM168.73 20.0911C170.23 20.9113 171.725 21.7199 173.252 22.5953C174.175 22.9373 175.102 23.2873 176.028 23.637C173.565 22.3815 171.127 21.1841 168.73 20.0911ZM341.676 185.192L341.491 185.256C342.72 187.22 343.937 189.101 345.17 191.098C344.427 189.753 343.682 188.381 342.941 187.055C342.517 186.428 342.093 185.795 341.676 185.192ZM342.95 184.744C342.671 184.84 342.387 184.942 342.106 185.041C342.457 185.664 342.81 186.327 343.161 186.955C344.93 189.522 346.72 192.181 348.507 194.828C347.244 192.214 345.982 189.616 344.719 187.077C344.129 186.299 343.539 185.52 342.95 184.744ZM343.446 184.57C343.36 184.601 343.273 184.632 343.187 184.661L344.111 185.879C343.889 185.436 343.668 185.011 343.446 184.57ZM345.202 183.961C344.697 184.134 344.188 184.311 343.679 184.488C344.1 185.326 344.52 186.127 344.941 186.973C346.952 189.632 348.937 192.21 350.964 194.919C349.76 192.062 348.551 189.271 347.339 186.509C346.621 185.647 345.922 184.83 345.202 183.961ZM346.111 183.66C345.89 183.733 345.67 183.804 345.446 183.881C345.973 184.517 346.489 185.125 347.01 185.745C346.709 185.063 346.412 184.337 346.111 183.66ZM349.777 182.447C348.632 182.827 347.5 183.191 346.346 183.583C346.753 184.498 347.155 185.476 347.561 186.403C349.83 189.15 352.17 192.074 354.476 194.913C352.928 190.643 351.36 186.495 349.777 182.447ZM354.61 180.847C353.085 181.345 351.551 181.856 350.015 182.368C351.677 186.619 353.32 190.991 354.943 195.486C357.197 198.256 359.443 201.006 361.718 203.825C359.432 195.811 357.079 188.081 354.61 180.847ZM360.422 178.968C358.578 179.553 356.716 180.16 354.852 180.767C357.376 188.168 359.778 196.092 362.11 204.308C364.33 207.064 366.601 209.946 368.854 212.784C366.316 200.646 363.509 189.355 360.422 178.968ZM367.354 176.829C365.137 177.504 362.917 178.181 360.669 178.892C363.795 189.426 366.634 200.889 369.198 213.221C371.402 215.993 373.64 218.852 375.863 221.674C373.655 205.121 370.81 190.179 367.354 176.829ZM375.376 174.446C372.81 175.188 370.22 175.957 367.608 176.751C371.091 190.227 373.951 205.324 376.165 222.057C377.883 224.237 379.575 226.351 381.319 228.595C381.801 229.215 382.277 229.821 382.755 230.431C381.521 209.152 379.038 190.511 375.376 174.446ZM461.913 161.385C465.102 161.73 468.103 162.249 470.933 162.925C466.972 160.021 462.213 157.876 456.805 156.367C458.67 157.875 460.376 159.544 461.913 161.385ZM451.052 160.773C454.589 160.786 457.958 160.959 461.163 161.282C459.51 159.367 457.678 157.635 455.669 156.081C452.795 155.335 449.767 154.741 446.548 154.336C448.227 156.29 449.736 158.427 451.052 160.773ZM439.714 161.236C443.442 160.961 447.058 160.796 450.506 160.789C449.135 158.396 447.561 156.221 445.812 154.235C442.65 153.859 439.355 153.615 435.879 153.553C437.335 155.909 438.626 158.455 439.714 161.236ZM428.027 162.475C431.887 161.961 435.639 161.553 439.256 161.277C438.139 158.468 436.812 155.901 435.319 153.528C431.968 153.48 428.497 153.554 424.876 153.783C426.092 156.472 427.129 159.387 428.027 162.475ZM416.393 164.31C420.246 163.617 424.002 163.02 427.654 162.527C426.742 159.424 425.672 156.516 424.43 153.824C420.958 154.054 417.365 154.411 413.672 154.873C414.71 157.84 415.617 160.985 416.393 164.31ZM405.141 166.548C408.858 165.741 412.496 165.017 416.055 164.373C415.272 161.043 414.36 157.889 413.308 154.926C409.84 155.366 406.283 155.899 402.634 156.533C403.582 159.703 404.421 163.035 405.141 166.548ZM394.493 169.008C398.003 168.143 401.442 167.354 404.831 166.616C404.105 163.102 403.259 159.767 402.304 156.595C398.945 157.182 395.528 157.829 392.025 158.572C392.941 161.893 393.77 165.362 394.493 169.008ZM384.621 171.531C387.872 170.653 391.045 169.86 394.204 169.082C393.477 165.433 392.644 161.963 391.722 158.641C388.547 159.316 385.334 160.035 382.051 160.832C382.985 164.253 383.848 167.804 384.621 171.531ZM375.574 174.093C378.517 173.242 381.461 172.392 384.341 171.61C383.566 167.882 382.703 164.32 381.767 160.897C378.846 161.61 375.851 162.407 372.854 163.208C373.823 166.698 374.718 170.352 375.574 174.093ZM367.537 176.482C370.149 175.687 372.742 174.912 375.307 174.168C374.45 170.425 373.55 166.773 372.578 163.28C369.911 163.995 367.21 164.75 364.486 165.532C365.547 169.065 366.561 172.723 367.537 176.482ZM360.592 178.624C362.845 177.91 365.063 177.237 367.283 176.561C366.305 172.799 365.289 169.141 364.224 165.608C361.862 166.285 359.517 166.941 357.112 167.671C358.304 171.216 359.469 174.852 360.592 178.624ZM354.76 180.513C356.626 179.903 358.498 179.287 360.346 178.7C359.221 174.926 358.054 171.29 356.859 167.745C354.876 168.35 352.843 169.017 350.837 169.65C352.168 173.168 353.481 176.769 354.76 180.513ZM349.915 182.115C351.455 181.601 352.99 181.092 354.518 180.593C353.238 176.85 351.925 173.245 350.593 169.727C348.924 170.253 347.267 170.763 345.579 171.313C347.04 174.818 348.48 178.449 349.915 182.115ZM346.238 183.332C347.396 182.939 348.529 182.575 349.678 182.194C348.24 178.526 346.798 174.897 345.336 171.39C344.01 171.823 342.672 172.273 341.337 172.718C342.976 176.186 344.612 179.681 346.238 183.332ZM345.257 183.656C345.508 183.571 345.755 183.492 346.003 183.41C344.377 179.759 342.74 176.265 341.1 172.799C340.15 173.117 339.19 173.449 338.238 173.772C338.888 175.021 339.539 176.356 340.19 177.616C341.885 179.645 343.549 181.597 345.257 183.656ZM343.558 184.251C344.045 184.079 344.535 183.903 345.015 183.739C343.55 181.972 342.122 180.297 340.667 178.556C341.631 180.434 342.595 182.333 343.558 184.251ZM343.019 184.44C343.121 184.405 343.223 184.368 343.326 184.332C342.208 182.109 341.09 179.9 339.972 177.728C338.978 176.538 337.995 175.374 337.004 174.191L336.048 174.516C336.674 175.586 337.299 176.641 337.926 177.726C339.605 179.907 341.323 182.207 343.019 184.44ZM341.976 184.805C342.245 184.711 342.515 184.615 342.782 184.523C341.502 182.838 340.211 181.119 338.938 179.456C339.949 181.209 340.962 183.004 341.976 184.805ZM341.347 185.026L341.522 184.965C340.798 183.919 340.082 182.907 339.362 181.875C340.024 182.927 340.684 183.968 341.347 185.026ZM226.97 231.666C265.544 214.102 304.817 197.7 341.113 185.109C339.67 182.805 338.231 180.531 336.792 178.247C336.031 177.167 335.276 176.111 334.517 175.036C292.283 189.596 245.671 210.057 200.944 231.666H200.381C245.217 209.985 291.975 189.439 334.354 174.806C331.979 171.44 329.604 168.07 327.265 164.848C279.565 181.146 225.889 206.015 175.934 231.666H175.416C225.452 205.955 279.259 180.999 327.098 164.623C325.689 162.685 324.31 160.867 322.913 158.978C321.775 157.554 320.658 156.19 319.534 154.808C266.926 172.541 206.618 202.127 152.551 231.666H152.053C206.176 202.076 266.604 172.401 319.348 154.581C316.668 151.282 314.003 148.029 311.364 144.851C254.303 163.722 187.757 198.426 130.7 231.666H130.233C187.327 198.385 253.985 163.591 311.179 144.626C310.491 143.798 309.783 142.91 309.097 142.089C306.989 139.742 304.865 137.357 302.783 135.076C241.682 154.744 169.319 195.007 110.436 231.666H109.987C168.885 194.976 241.347 154.62 302.578 134.848C299.609 131.599 296.703 128.503 293.784 125.371C228.952 145.502 151.179 191.913 91.6554 231.666H91.2268C150.746 191.893 228.605 145.387 293.567 125.139C290.609 121.969 287.657 118.81 284.763 115.791C216.377 135.926 133.491 189.225 74.4548 231.666H74.0492C133.062 189.22 216.023 135.826 284.537 115.56C281.481 112.374 278.486 109.331 275.496 106.3C203.661 125.983 116.066 187.086 58.7617 231.666H58.3751C115.638 187.096 203.296 125.891 275.259 106.057C272.163 102.921 269.119 99.9085 266.09 96.929C190.771 115.603 98.8842 185.685 44.6012 231.666H44.2378C98.4609 185.715 190.4 115.536 265.847 96.6912C262.762 93.6596 259.686 90.6488 256.672 87.7839C177.661 104.703 81.8924 185.306 31.9969 231.666H31.6496C81.4632 185.361 177.268 104.657 256.404 87.534C253.256 84.544 250.154 81.6594 247.083 78.8473C163.936 93.2625 64.8491 186.471 20.9409 231.666H20.6093C64.4123 186.556 163.526 93.2349 246.796 78.5798C243.603 75.659 240.481 72.9017 237.369 70.1661C149.241 81.2001 47.4005 190.136 11.454 231.666H11.1381C46.9498 190.268 148.798 81.21 237.045 69.8798C233.881 67.1022 230.762 64.4271 227.681 61.8371C132.789 68.335 28.407 198.837 3.57133 231.666H3.27359C27.9045 199.088 132.306 68.4024 227.34 61.553C224.229 58.9424 221.14 56.3832 218.112 53.9609C117.533 54.2069 15.1945 204.414 0 227.582V227.145C15.903 202.954 117.616 54.334 217.712 53.6486C214.651 51.2051 211.613 48.8108 208.637 46.5568C107.126 39.4774 14.4004 193.543 0 218.619V218.139C15.0381 192.025 107.21 39.6745 208.189 46.2064C205.146 43.9073 202.185 41.7897 199.229 39.6834C95.7512 24.6155 13.4307 182.221 0 209.505V208.961C14.0798 180.465 95.8972 24.9392 198.674 39.2794C195.767 37.2153 192.924 35.2903 190.101 33.4081C83.5743 9.65716 12.3742 169.994 0 200.143V199.51C12.9725 168.063 83.7505 10.1895 189.372 32.9183C186.667 31.1253 184.005 29.4245 181.376 27.7939C70.626 -5.28811 11.1141 156.574 0 190.347V189.571C11.6819 154.339 70.8768 -4.43016 180.328 27.1502C177.954 25.6925 175.591 24.2565 173.278 22.9294C57.3243 -20.0133 9.67799 140.896 0 179.669V178.665C10.1725 138.407 57.6076 -18.4056 171.468 21.9259C169.624 20.8877 167.773 19.8348 165.969 18.8784C44.6268 -33.8867 8.06774 120.796 0 166.851V165.44C8.43952 118.268 44.6953 -30.2024 161.598 16.6616C35.8912 -46.4754 6.66157 90.4787 0 147.463V145.37C7.2058 86.4414 37.8624 -49.2831 165.928 18.5392C170.118 20.3601 174.395 22.3927 178.789 24.7192C183.374 26.6379 188.084 28.9422 192.878 31.5096C197.645 33.4604 202.51 35.8097 207.455 38.5001C212.291 40.4424 217.191 42.7671 222.155 45.5073C227.061 47.4363 232.003 49.7473 236.979 52.5343C241.958 54.4416 246.942 56.7552 251.925 59.5809C257.111 61.5188 262.268 63.9292 267.376 66.9008C272.556 68.8022 277.663 71.2159 282.681 74.179C287.929 76.0626 293.065 78.4651 298.056 81.4674C303.376 83.3269 308.537 85.7305 313.497 88.7664C318.895 90.5939 324.073 93.0135 329.001 96.0748C334.481 97.8665 339.67 100.31 344.563 103.391C350.126 105.156 355.333 107.605 360.182 110.715C365.881 112.465 371.142 114.954 375.978 118.13C381.814 119.865 387.125 122.389 391.935 125.637C397.853 127.35 403.176 129.866 407.916 133.146C413.918 134.839 419.26 137.345 423.925 140.66C429.999 142.344 435.381 144.815 439.954 148.176C446.111 149.846 451.522 152.299 456.009 155.696C462.264 157.334 467.681 159.793 472.082 163.217C497.627 169.781 507.756 190.449 493.514 231.666H493.158C507.03 191.328 497.443 170.768 472.856 163.904C486.768 175.42 490.118 196.95 478.717 231.666H478.389C489.897 196.506 486.212 174.926 471.712 163.613C468.777 162.858 465.65 162.278 462.321 161.886C473.103 175.294 474.918 197.713 464.618 231.666H464.299C474.62 197.519 472.635 175.087 461.574 161.784C458.313 161.421 454.905 161.196 451.291 161.166C459.452 176.093 460.207 198.952 451.294 231.666H450.989C459.892 198.873 459.039 176.023 450.732 161.16C447.269 161.15 443.623 161.313 439.874 161.578C446.016 177.6 446.175 200.495 438.794 231.666H438.501C445.86 200.47 445.641 177.595 439.416 161.619C435.776 161.887 431.993 162.292 428.104 162.803C432.883 179.52 432.914 202.13 427.128 231.666H426.85C432.622 202.128 432.558 179.536 427.732 162.856C424.077 163.342 420.314 163.935 416.455 164.625C420.378 181.7 420.593 203.797 416.371 231.666H416.101C420.308 203.806 420.071 181.73 416.117 164.687C412.555 165.327 408.916 166.046 405.194 166.85C408.67 184.008 409.282 205.438 406.557 231.666H406.293C409.007 205.456 408.38 184.049 404.884 166.919C401.494 167.653 398.055 168.437 394.542 169.299C397.885 186.332 399.041 207.008 397.718 231.666H397.459C398.774 207.031 397.609 186.378 394.253 169.373C391.097 170.148 387.927 170.938 384.679 171.813C388.126 188.569 389.904 208.475 389.882 231.666H389.627C389.643 208.501 387.86 188.618 384.407 171.888C381.53 172.666 378.582 173.523 375.642 174.371C379.32 190.546 381.804 209.329 383.027 230.779L383.72 231.666H383.418L383.051 231.196L383.077 231.666H382.827L382.779 230.848C382.228 230.145 381.679 229.447 381.124 228.733C379.466 226.599 377.858 224.591 376.225 222.519C376.62 225.526 377.044 228.46 377.396 231.576L377.46 231.666H377.157L377.155 231.648C375.187 228.865 373.214 226.063 371.256 223.311C371.759 225.999 372.201 228.882 372.674 231.666H372.267C370.576 228.968 368.869 226.196 367.202 223.602C367.863 226.286 368.538 228.918 369.184 231.666H368.707C367.356 229.283 366.017 226.981 364.669 224.62C365.367 226.894 366.041 229.311 366.725 231.666H366.284C365.259 229.579 364.235 227.493 363.214 225.455C363.975 227.517 364.737 229.572 365.495 231.666H365.167C362.668 225.783 360.167 220.077 357.666 214.523C354.45 208.293 351.244 202.194 348.056 196.332C345.776 192.579 343.514 188.945 341.257 185.339C305.114 197.859 265.998 214.178 227.553 231.666H226.97V231.666Z" fill="white"/>
</mask>
<g mask="url(#mask0_102_2672)">
<path d="M507.756 -49.2831H0V231.666H507.756V-49.2831Z" fill="url(#paint0_linear_102_2672)"/>
</g>
<defs>
<linearGradient id="paint0_linear_102_2672" x1="42.6645" y1="124.35" x2="438.794" y2="62.1615" gradientUnits="userSpaceOnUse">
<stop stop-color="#00528E"/>
<stop offset="1" stop-color="#53B4FC"/>
</linearGradient>
</defs>
</svg>
