<svg width="384" height="315" viewBox="0 0 384 315" fill="none" xmlns="http://www.w3.org/2000/svg">
<path d="M8.66947 228.542L7.32568 282.277L262.949 288.67L264.293 234.934L8.66947 228.542Z" fill="#D4E6F4"/>
<g opacity="0.3">
<path d="M7.91233 260.21L7.35986 282.302L262.984 288.694L263.536 266.602L7.91233 260.21Z" fill="black"/>
</g>
<path d="M8.72954 228.622C13.1665 228.727 16.4602 240.849 16.0882 255.693C15.7207 270.528 11.8237 282.465 7.38671 282.356C2.94523 282.251 -0.339419 270.125 0.0280579 255.289C0.390998 240.45 4.2926 228.504 8.72954 228.622Z" fill="#A6BFED"/>
<path d="M140.495 9.31579L82.3339 8.12262L76.6721 283.935C76.3591 284.429 76.1685 284.937 76.1549 285.468C76.0551 290.263 88.9939 294.428 105.054 294.764C121.119 295.09 134.216 291.465 134.311 286.661C134.316 286.425 134.266 286.198 134.216 285.976L134.811 285.985L140.495 9.31579Z" fill="#F3F6FE"/>
<g opacity="0.3">
<path d="M134.316 286.666C134.321 286.43 134.271 286.203 134.221 285.981L134.815 285.99L140.5 9.32049L106.923 8.63544V294.782C122.112 294.791 134.221 291.275 134.316 286.666Z" fill="black"/>
</g>
<path d="M140.495 9.31565C140.395 14.1201 127.298 17.7404 111.238 17.4138C95.1775 17.0826 82.2342 12.9224 82.3385 8.12248C82.4338 3.31806 95.536 -0.302179 111.596 0.0199307C127.656 0.351114 140.59 4.51123 140.495 9.31565Z" fill="#D4DEF4"/>
<path d="M72.1465 26.0166L24.3843 50.6852L141.727 277.879L189.489 253.21L72.1465 26.0166Z" fill="#D4E6F4"/>
<g opacity="0.3">
<path d="M72.0389 25.9945L52.4106 36.1356L169.779 263.304L189.407 253.163L72.0389 25.9945Z" fill="black"/>
</g>
<path d="M72.1354 25.9839C74.1724 29.9263 65.1306 38.6414 51.9378 45.4647C38.754 52.2653 26.4094 54.5927 24.3724 50.6502C22.3354 46.7033 31.3817 37.9926 44.5655 31.1784C57.7539 24.3687 70.0984 22.0414 72.1354 25.9839Z" fill="#A6BFED"/>
<path d="M189.356 253.951C191.388 257.898 182.351 266.609 169.158 273.427C155.974 280.232 143.625 282.56 141.597 278.617C139.551 274.67 148.597 265.96 161.786 259.146C174.97 252.332 187.319 250.009 189.356 253.951Z" fill="#F3F6FE"/>
<path d="M120.895 11.4153L118.914 294.427L354.58 296.077L356.561 13.0649L120.895 11.4153Z" fill="#D89551"/>
<path d="M136.803 27.3136L135.032 280.315L340.606 281.754L342.377 28.7527L136.803 27.3136Z" fill="#F3F6FE"/>
<path d="M190.005 105.15L190.404 47.9327L283.285 48.577L282.886 105.799L190.005 105.15ZM194.41 52.0112L194.079 101.14L278.875 101.734L279.216 52.6056L194.41 52.0112Z" fill="#728EE1"/>
<path d="M172.829 158.203L173.219 100.995L311.163 101.947L310.769 159.165L172.829 158.203ZM177.234 105.069L176.884 154.193L306.753 155.1L307.103 105.972L177.234 105.069Z" fill="#728EE1"/>
<path d="M219.965 248.611L220.619 154.496L275.595 154.882L274.933 248.997L219.965 248.611ZM224.638 158.571L224.035 244.605L270.927 244.932L271.525 158.893L224.638 158.571Z" fill="#728EE1"/>
<path d="M298.949 117.451L298.766 143.687L317.952 143.822L318.135 117.586L298.949 117.451Z" fill="#F3F6FE"/>
<path d="M238.661 143.479L238.472 169.733L257.649 169.871L257.838 143.617L238.661 143.479Z" fill="#F3F6FE"/>
<path d="M213.538 92.6548L213.349 118.909L232.526 119.047L232.715 92.7929L213.538 92.6548Z" fill="#F3F6FE"/>
<path d="M245.615 44.6525L245.431 70.9066L264.613 71.0409L264.796 44.7867L245.615 44.6525Z" fill="#F3F6FE"/>
<path d="M263.651 194.4L263.472 220.645L282.654 220.776L282.832 194.531L263.651 194.4Z" fill="#F3F6FE"/>
<path d="M215.47 75.0399L215.647 49.1305L235.831 49.2712L235.649 75.1805L215.47 75.0399ZM217.638 51.1675L217.489 73.0393L233.639 73.1481L233.794 51.2809L217.638 51.1675Z" fill="#728EE1"/>
<path d="M221.916 213.747L222.229 169.423L252.281 169.627L251.972 213.96L221.916 213.747ZM224.234 171.46L223.953 211.746L249.971 211.927L250.248 171.641L224.234 171.46Z" fill="#728EE1"/>
<path d="M248.798 184.038L248.646 205.488L253.532 205.523L253.684 184.073L248.798 184.038Z" fill="#F3F6FE"/>
<path d="M266.353 103.668L266.303 111.235L268.322 111.249L268.372 103.681L266.353 103.668Z" fill="#728EE1"/>
<path d="M266.154 115.73L266.108 123.297L268.136 123.31L268.182 115.743L266.154 115.73Z" fill="#728EE1"/>
<path d="M266.1 127.821L266.041 135.389L268.064 135.405L268.124 127.837L266.1 127.821Z" fill="#728EE1"/>
<path d="M205.597 119.098L205.431 142.821L207.45 142.835L207.616 119.112L205.597 119.098Z" fill="#728EE1"/>
<path d="M266.085 139.981L266.024 147.549L268.048 147.565L268.108 139.997L266.085 139.981Z" fill="#728EE1"/>
<path d="M265.98 152.121L265.943 158.174L267.966 158.186L268.003 152.134L265.98 152.121Z" fill="#728EE1"/>
<path d="M237.042 211.746L237.023 213.761L263.695 214.001L263.713 211.986L237.042 211.746Z" fill="#728EE1"/>
<path d="M223.971 70.7681L223.893 81.1074L229.586 81.1506L229.665 70.8114L223.971 70.7681Z" fill="#F3F6FE"/>
<path d="M183.758 207.036L183.615 228.354L212.332 228.546L212.475 207.228L183.758 207.036Z" fill="#D4DEF4"/>
<path d="M148.101 206.817L147.943 228.14L176.661 228.353L176.819 207.03L148.101 206.817Z" fill="#D4DEF4"/>
<path d="M147.91 231.751L147.65 270.495L212.109 270.927L212.368 232.183L147.91 231.751Z" fill="#D4DEF4"/>
<path d="M212.226 189.393H148.394V194.806H212.226V189.393Z" fill="#728EE1"/>
<path d="M334.232 103.036C334.232 103.036 328.897 97.8777 322.586 103.834C315.237 110.748 310.886 134.712 298.315 140.877C285.739 147.038 277.854 141.802 272.156 138.962C266.399 136.118 265.442 132.316 261.935 131.041C258.437 129.753 257.067 133.981 265.16 140.709C269.039 143.926 286.261 162.118 302.602 157.54C323.993 151.52 344.744 110.299 334.232 103.036Z" fill="#FBC6B4"/>
<path d="M335.013 103.435C341.437 108.943 337.236 124.49 324.642 135.696L307.774 122.925C307.774 122.925 321.33 91.6941 335.013 103.435Z" fill="#FE9800"/>
<path d="M311.358 215.784C313.204 241.856 319.887 283.921 321.253 305.879C321.334 307.39 321.57 307.684 315.994 308.964C309.579 310.438 314.525 313.519 324.61 313.428C334.051 313.355 338.279 272.262 339.186 250.535C339.449 244.424 337.086 225.95 340.307 208.538C340.693 215.049 341.251 222.453 342.085 230.587C344.503 254.369 372.885 285.541 374.99 305.543C375.172 307.081 374.959 307.68 369.986 309.231C364.987 310.769 369.832 313.655 378.461 313.419C387.117 313.197 379.727 273.409 375.249 254.037C371.338 237.079 371.084 219.422 366.058 174.622C366.089 174.603 366.126 174.603 366.126 174.594C366.126 174.594 366.089 174.603 366.058 174.603C366.03 174.2 365.971 173.832 365.931 173.415C365.055 157.659 363.835 147.56 371.697 133.618C383.007 113.62 367.11 107.523 357.515 103.581C347.924 99.6336 322.183 97.4514 319.343 112.908C316.952 125.96 327.654 143.699 320.177 163.788C319.737 164.958 309.189 185.696 311.358 215.784Z" fill="#FBC6B4"/>
<path d="M383.942 297.644C383.942 297.644 380.757 306.237 373.611 301.469C334.251 247.495 340.688 215.048 340.303 208.538C342.634 238.472 337.381 292.105 331.479 306.183C327.985 307.943 321.253 305.874 320.382 303.887C320.087 301.569 307.643 230.256 308.378 217.276C309.607 195.155 311.39 175.833 315.332 167.453C332.536 180.088 356.93 177.679 366.321 175.683C367.246 213.365 385.148 256.083 383.942 297.644Z" fill="#6196EB"/>
<path d="M329.904 308.487C329.904 308.487 322.373 311.772 317.75 308.487C317.75 308.487 309.285 309.753 314.597 312.017C319.933 314.281 330.213 316.164 329.904 308.487Z" fill="#1D1B3A"/>
<path d="M382.131 309.231C382.131 309.231 374.609 312.511 369.982 309.231C369.982 309.231 361.516 310.497 366.847 312.765C372.173 315.029 382.453 316.907 382.131 309.231Z" fill="#1D1B3A"/>
<path d="M381.714 300.825C373.92 283.39 359.248 189.697 359.144 189.021L360.092 188.876C360.201 189.538 374.85 283.113 382.585 300.435L381.714 300.825Z" fill="white"/>
<path d="M359.583 104.433C359.583 104.433 347.87 129.163 330.698 125.402C325.531 124.286 323.439 117.363 339.295 99.765L331.61 100.672C331.61 100.672 311.48 98.7169 311.412 145.595C311.385 171.985 311.362 183.355 311.362 183.355C311.362 183.355 316.598 187.814 340.289 189.942C350.887 190.895 359.847 190.151 367.654 187.696C367.654 187.696 363.458 170.42 375.866 123.111C378.479 113.148 364.152 106.221 364.152 106.221L359.583 104.433Z" fill="#FFAA3B"/>
<path d="M355.233 89.8839C355.233 89.8839 349.712 97.0021 354.385 102.487C359.148 108.117 334.178 114.972 335.761 110.463C337.826 104.61 341.673 101.752 340.294 94.1803L355.233 89.8839Z" fill="#F7B2A0"/>
<path d="M345.951 71.9502C339.758 75.6205 329.541 95.555 333.86 101.412C335.743 103.966 345.864 103.83 354.031 95.8953C357.397 92.6379 362.092 86.1866 359.829 78.1022C358.803 74.4546 353.15 67.6766 345.951 71.9502Z" fill="#FBC6B4"/>
<path d="M352.221 95.2011C352.221 95.2011 350.614 96.8797 346.622 95.2011C342.634 93.5315 337.19 88.0648 334.958 88.2871C332.713 88.5049 329.904 100.105 333.942 102.891C337.975 105.667 350.161 102.927 354.217 97.9957C355.083 96.9568 352.221 95.2011 352.221 95.2011Z" fill="#1D1B3A"/>
<path d="M340.616 96.8798C340.616 96.8798 339.622 93.1369 336.941 92.3657C334.264 91.5944 334.037 94.9336 334.387 96.154C334.7 97.3789 338.384 100.455 340.611 99.7516C342.843 99.0529 341.115 98.1819 340.616 96.8798Z" fill="#FBC6B4"/>
<path d="M362.945 79.1137C365.286 87.6609 360.432 92.8964 359.584 93.8627C356.48 97.4195 353.377 100.142 348.16 102.029C347.629 102.301 351.449 99.8511 350.95 98.2315C350.383 96.2807 355.618 96.7571 355.237 91.7394C354.87 86.7308 358.195 86.427 358.368 82.1715C358.558 77.916 355.324 78.0158 346.631 74.6132C343.092 73.2295 342.702 71.6508 343.483 70.2625C350.447 65.871 360.464 70.1128 362.945 79.1137Z" fill="#1D1B3A"/>
<path d="M330.272 177.675C330.272 177.675 357.724 193.15 363.263 172.145L357.32 177.33L330.272 177.675Z" fill="#1D1B3A"/>
<path d="M368.489 112.041C368.489 112.041 361.498 109.537 358.209 117.581C354.385 126.922 360.341 150.531 351.445 161.342C342.53 172.158 333.207 170.643 326.824 170.425C320.418 170.216 317.982 167.14 314.243 167.431C310.523 167.707 311.036 172.131 321.189 174.903C326.057 176.232 349.267 185.664 362.238 174.739C379.223 160.412 381.065 114.301 368.489 112.041Z" fill="#FBC6B4"/>
<path d="M369.192 110.399C377.49 112.055 381.442 127.671 375.957 143.595L354.992 140.737C354.992 140.737 351.499 106.879 369.192 110.399Z" fill="#FE9800"/>
<path d="M357.683 85.7059C357.683 85.7059 335.112 79.3272 336.16 72.2907C336.809 67.9491 349.911 69.6595 349.911 69.6595L357.683 85.7059Z" fill="#EDA503"/>
<path d="M342.902 72.9121C344.708 79.7036 350.029 83.4373 363.871 87.8516C363.871 87.8516 371.361 74.4365 361.648 67.3319C353.083 61.0803 341.75 68.5749 342.902 72.9121Z" fill="#FFB502"/>
</svg>
